<svg width="292" height="86" viewBox="0 0 292 86" fill="none" xmlns="http://www.w3.org/2000/svg">
<path d="M138.92 16.5414C149.56 16.5414 154.238 22.772 155.059 27.8335H159.271V18.1919H168.626V76.9904H159.271V67.3488H155.059C154.129 72.4103 149.56 78.6409 138.92 78.6409C122.657 78.6409 112.495 65.3545 112.495 48.4095V46.649C112.495 29.8278 122.671 16.5414 138.92 16.5414ZM140.793 70.526C152.487 70.526 159.271 61.9435 159.271 48.4233V46.6627C159.271 33.1425 152.487 24.7938 140.793 24.7938C129.099 24.7938 122.083 33.1425 122.083 46.6627V48.4233C122.083 61.9435 129.332 70.526 140.793 70.526Z" fill="black"/>
<path d="M187.515 0.54541V27.8334H191.727C192.548 22.772 197.226 16.5414 207.866 16.5414C224.129 16.5414 234.291 29.8278 234.291 46.649V48.4095C234.291 65.3407 224.115 78.6409 207.866 78.6409C197.226 78.6409 192.657 72.4103 191.727 67.3488H187.515V76.9904H178.159V0.54541H187.515ZM205.993 70.526C217.454 70.526 224.703 61.9435 224.703 48.4233V46.6627C224.703 33.1425 217.454 24.7938 205.993 24.7938C194.531 24.7938 187.515 33.1425 187.515 46.6627V48.4233C187.515 61.9435 194.299 70.526 205.993 70.526Z" fill="black"/>
<path d="M266.761 70.8698C274.365 70.8698 281.847 67.335 281.847 60.8706C281.847 55.5753 277.525 53.4572 269.332 52.0543L261.03 50.6376C249.568 48.7533 242.087 43.348 242.087 34.174C242.087 25.0001 251.565 16.5276 263.724 16.5276C275.883 16.5276 285.827 22.7582 288.056 35.9345H278.701C276.594 25.7015 269.346 24.1748 263.738 24.1748C257.775 24.1748 250.991 27.4621 250.991 33.5826C250.991 38.1765 253.918 40.2808 262.452 42.1651C264.093 42.5227 269.824 43.5818 271.807 43.9257C281.286 45.5761 291.215 48.8634 291.215 61.2145C291.215 72.6166 279.754 78.6271 265.489 78.6271C251.223 78.6271 240.815 70.3884 238.585 57.9273H247.941C250.512 67.6926 258.814 70.8698 266.774 70.8698H266.761Z" fill="black"/>
<path d="M57.5948 59.619L75.1427 77.2655L66.909 85.5454L49.3611 67.899C47.8566 66.386 45.8734 65.5608 43.7398 65.5608C41.6061 65.5608 39.6229 66.386 38.1184 67.899L20.5705 85.5454L12.3369 77.2655L29.8847 59.619H57.5811H57.5948Z" fill="black"/>
<path d="M60.5217 54.53L84.4842 60.9806L87.4932 49.6611L63.5307 43.2104C61.4791 42.6603 59.7695 41.3399 58.7026 39.4831C57.6358 37.64 57.3623 35.4806 57.9094 33.4175L64.324 9.32045L53.0676 6.29456L46.653 30.3916L60.508 54.5162L60.5217 54.53Z" fill="black"/>
<path d="M26.9715 54.53L3.00899 60.9806L0 49.6611L23.9625 43.2104C26.0141 42.6603 27.7237 41.3399 28.7906 39.4831C29.8574 37.64 30.1309 35.4806 29.5838 33.4175L23.1692 9.32045L34.4256 6.29456L40.8402 30.3916L26.9852 54.5162L26.9715 54.53Z" fill="black"/>
</svg>
