<?xml version="1.0" encoding="iso-8859-1"?>
<!-- Uploaded to: SVG Repo, www.svgrepo.com, Generator: SVG Repo Mixer Tools -->
<!DOCTYPE svg PUBLIC "-//W3C//DTD SVG 1.1//EN" "http://www.w3.org/Graphics/SVG/1.1/DTD/svg11.dtd">
<svg fill="#000000" height="800px" width="800px" version="1.1" id="Capa_1" xmlns="http://www.w3.org/2000/svg" xmlns:xlink="http://www.w3.org/1999/xlink" 
	 viewBox="0 0 407.384 407.384" xml:space="preserve">
<g>
	<g>
		<g>
			<g>
				<path d="M121.699,269.414c-30.129,0-54.641-24.512-54.641-54.641c0-8.694,1.996-17.023,5.935-24.756
					c0.854-1.676,2.575-2.731,4.456-2.731h88.503c1.881,0,3.603,1.056,4.456,2.731c3.938,7.734,5.935,16.063,5.935,24.756
					C176.341,244.902,151.828,269.414,121.699,269.414z M80.624,197.286c-2.368,5.529-3.566,11.398-3.566,17.487
					c0,24.615,20.026,44.641,44.641,44.641c24.616,0,44.642-20.025,44.642-44.641c0-6.088-1.199-11.957-3.567-17.487H80.624z"/>
			</g>
			<g>
				<path d="M285.686,269.414c-30.13,0-54.642-24.512-54.642-54.641c0-8.692,1.997-17.021,5.935-24.756
					c0.853-1.676,2.575-2.731,4.456-2.731h88.503c1.88,0,3.602,1.056,4.456,2.731c3.938,7.732,5.935,16.062,5.935,24.756
					C340.327,244.902,315.815,269.414,285.686,269.414z M244.611,197.286c-2.368,5.53-3.567,11.399-3.567,17.487
					c0,24.615,20.026,44.641,44.642,44.641c24.615,0,44.641-20.025,44.641-44.641c0-6.089-1.198-11.958-3.566-17.487H244.611z"/>
			</g>
		</g>
		<path d="M222.491,281.244c-2.094-4.148-12.146-23.658-17.705-23.658c-2.778,0-5.65,0-18.706,23.482
			c-7.238,13.019-12.04,22.145-12.04,26.268c0,7.883,6.414,14.296,14.297,14.296c3.701,0,7.211-1.408,9.925-4.006
			c1.691-1.624,6.124-4.886,10.765-0.095c2.524,2.607,6.176,4.101,10.02,4.101c7.884,0,14.297-6.413,14.297-14.296
			C233.344,302.336,224.862,285.939,222.491,281.244z M219.047,311.632c-1.151,0-2.185-0.386-2.836-1.058
			c-3.475-3.588-7.616-5.504-11.978-5.543c-0.047-0.001-0.093-0.001-0.14-0.001c-6.966,0-12.03,4.672-12.805,5.429
			c-0.801,0.757-1.848,1.173-2.951,1.173c-2.27,0-4.116-1.774-4.268-4.006c1.479-5.305,14.436-29.336,20.594-37.919
			c5.678,8.658,17.42,32.655,18.658,37.859C223.198,309.826,221.337,311.632,219.047,311.632z"/>
		<path d="M388.605,161.52C388.605,72.457,319.234,0,233.966,0h-60.547C88.15,0,18.779,72.457,18.779,161.52
			c0,27.78,6.854,55.053,19.812,79.109c-6.524,9.5-9.966,20.514-9.966,32.063c0,31.854,26.573,57.77,59.235,57.77
			c2.765,0,5.52-0.186,8.243-0.556v63.972c0,7.447,6.059,13.507,13.507,13.507h4.772c7.448,0,13.507-6.06,13.507-13.507v-8.56h4.892
			v8.56c0,7.447,6.06,13.507,13.507,13.507h4.772c7.448,0,13.507-6.06,13.507-13.507v-8.56h4.893v8.56
			c0,7.447,6.06,13.507,13.507,13.507h4.771c7.448,0,13.507-6.06,13.507-13.507v-8.56h4.893v8.56
			c0,7.447,6.059,13.507,13.507,13.507h4.771c7.448,0,13.507-6.06,13.507-13.507v-8.56h4.893v8.56
			c0,7.447,6.06,13.507,13.507,13.507h4.771c7.448,0,13.507-6.06,13.507-13.507v-8.56h4.893v8.56c0,7.447,6.06,13.507,13.507,13.507
			h4.772c7.448,0,13.507-6.06,13.507-13.507v-63.972c2.723,0.369,5.478,0.556,8.242,0.556c32.663,0,59.235-25.915,59.235-57.77
			c0-11.549-3.442-22.563-9.966-32.063C381.751,216.571,388.604,189.299,388.605,161.52z M117.888,393.877
			c0,1.934-1.573,3.507-3.507,3.507h-4.772c-1.934,0-3.507-1.573-3.507-3.507v-16.379c0-1.934,1.573-3.508,3.507-3.508h4.772
			c1.934,0,3.507,1.573,3.507,3.508V393.877z M154.567,393.877c0,1.934-1.573,3.507-3.507,3.507h-4.772
			c-1.934,0-3.507-1.573-3.507-3.507v-16.379c0-1.934,1.573-3.508,3.507-3.508h4.772c1.934,0,3.507,1.573,3.507,3.508V393.877z
			 M191.245,393.877c0,1.934-1.573,3.507-3.507,3.507h-4.771c-1.934,0-3.507-1.573-3.507-3.507v-16.379
			c0-1.934,1.573-3.508,3.507-3.508h4.771c1.934,0,3.507,1.573,3.507,3.508V393.877z M227.924,393.877
			c0,1.934-1.573,3.507-3.507,3.507h-4.771c-1.934,0-3.507-1.573-3.507-3.507v-16.379c0-1.934,1.573-3.508,3.507-3.508h4.771
			c1.934,0,3.507,1.573,3.507,3.508V393.877z M264.603,393.877c0,1.934-1.573,3.507-3.507,3.507h-4.771
			c-1.934,0-3.507-1.573-3.507-3.507v-16.379c0-1.934,1.573-3.508,3.507-3.508h4.771c1.934,0,3.507,1.573,3.507,3.508V393.877z
			 M301.282,393.877c0,1.934-1.573,3.507-3.507,3.507h-4.772c-1.934,0-3.507-1.573-3.507-3.507v-16.379
			c0-1.934,1.573-3.508,3.507-3.508h4.772c1.934,0,3.507,1.573,3.507,3.508V393.877z M319.524,320.461
			c-4.083,0-8.14-0.484-12.057-1.44c-1.489-0.363-3.065-0.023-4.273,0.925c-1.207,0.948-1.912,2.397-1.912,3.933v40.591
			c-1.121-0.303-2.292-0.478-3.507-0.478h-4.772c-6.704,0-12.267,4.914-13.314,11.326h-5.278
			c-1.048-6.412-6.611-11.326-13.314-11.326h-4.771c-6.704,0-12.267,4.914-13.314,11.326h-5.278
			c-1.048-6.412-6.611-11.326-13.314-11.326h-4.771c-6.704,0-12.266,4.914-13.314,11.326h-5.279
			c-1.048-6.412-6.61-11.326-13.314-11.326h-4.771c-6.704,0-12.267,4.914-13.314,11.326h-5.278
			c-1.048-6.412-6.611-11.326-13.314-11.326h-4.772c-6.704,0-12.267,4.914-13.314,11.326h-5.278
			c-1.048-6.412-6.611-11.326-13.314-11.326h-4.772c-1.215,0-2.386,0.176-3.507,0.478v-40.591c0-1.535-0.705-2.984-1.912-3.933
			c-1.208-0.947-2.785-1.288-4.273-0.925c-3.918,0.956-7.974,1.44-12.058,1.44c-27.148,0-49.235-21.43-49.235-47.77
			c0-10.419,3.397-20.321,9.823-28.635c1.288-1.666,1.352-3.884,0.344-5.594C35.7,215.245,28.78,188.641,28.779,161.52
			c0-43.783,17.826-83.28,46.266-110.967l31.976,42.884c0.943,1.266,2.43,2.011,4.008,2.011h35.847c2.761,0,5-2.238,5-5
			c0-2.762-2.239-5-5-5h-33.338L82.477,43.791C107.34,22.674,138.991,10,173.418,10h60.547c29.724,0,57.379,9.445,80.384,25.616
			l-46.756,34.613c-1.886,1.396-2.547,3.918-1.589,6.061l14.671,32.798c0.831,1.857,2.655,2.959,4.567,2.959
			c0.682,0,1.376-0.141,2.039-0.437c2.521-1.128,3.65-4.085,2.522-6.606l-13.03-29.129l45.88-33.964
			c34.024,27.747,55.952,71.044,55.952,119.608c0,27.121-6.921,53.726-20.013,76.944c-1.007,1.71-0.943,3.927,0.345,5.593
			c6.426,8.314,9.823,18.216,9.823,28.635C368.759,299.031,346.672,320.461,319.524,320.461z"/>
	</g>
</g>
</svg>